<svg width="265" height="49" viewBox="0 0 265 49" fill="none" xmlns="http://www.w3.org/2000/svg">
<path d="M95.1569 45.2671L93.5722 43.684C93.1846 43.7903 92.7893 43.8435 92.3865 43.8435C91.6493 43.8435 90.9766 43.6726 90.3686 43.3309C89.7605 42.9817 89.2779 42.4995 88.9207 41.8845C88.571 41.2619 88.3962 40.5633 88.3962 39.7888C88.3962 39.0144 88.571 38.3196 88.9207 37.7046C89.2779 37.082 89.7605 36.5998 90.3686 36.2581C90.9766 35.9088 91.6493 35.7342 92.3865 35.7342C93.1314 35.7342 93.8078 35.9088 94.4159 36.2581C95.0239 36.5998 95.5027 37.0782 95.8524 37.6932C96.202 38.3082 96.3768 39.0068 96.3768 39.7888C96.3768 40.5481 96.2096 41.2315 95.8752 41.8389C95.5407 42.4464 95.0809 42.9247 94.4957 43.274L96.5022 45.2671H95.1569ZM89.4565 39.7888C89.4565 40.4191 89.5819 40.9733 89.8327 41.4517C90.0912 41.93 90.4408 42.2983 90.8816 42.5565C91.33 42.8146 91.8317 42.9437 92.3865 42.9437C92.9414 42.9437 93.4392 42.8146 93.88 42.5565C94.3285 42.2983 94.6781 41.93 94.9289 41.4517C95.1873 40.9733 95.3165 40.4191 95.3165 39.7888C95.3165 39.151 95.1873 38.5967 94.9289 38.126C94.6781 37.6476 94.3323 37.2794 93.8914 37.0212C93.4506 36.7631 92.949 36.634 92.3865 36.634C91.8241 36.634 91.3224 36.7631 90.8816 37.0212C90.4408 37.2794 90.0912 37.6476 89.8327 38.126C89.5819 38.5967 89.4565 39.151 89.4565 39.7888Z" fill="#2E3192"/>
<path d="M102.466 41.9984H99L98.3615 43.7637H97.267L100.14 35.8709H101.337L104.199 43.7637H103.104L102.466 41.9984ZM102.169 41.1556L100.733 37.1465L99.2964 41.1556H102.169Z" fill="#2E3192"/>
<path d="M111.699 43.7637H110.661L106.488 37.4426V43.7637H105.451V35.8139H106.488L110.661 42.1237V35.8139H111.699V43.7637Z" fill="#2E3192"/>
<path d="M115.941 35.8253C116.807 35.8253 117.556 35.9886 118.187 36.3151C118.825 36.634 119.312 37.0933 119.646 37.6932C119.988 38.293 120.159 38.9992 120.159 39.8116C120.159 40.6241 119.988 41.3302 119.646 41.93C119.312 42.5223 118.825 42.9779 118.187 43.2968C117.556 43.6081 116.807 43.7637 115.941 43.7637H113.467V35.8253H115.941ZM115.941 42.9095C116.967 42.9095 117.75 42.64 118.29 42.1009C118.829 41.5542 119.099 40.7911 119.099 39.8116C119.099 38.8245 118.825 38.0538 118.278 37.4996C117.739 36.9453 116.96 36.6681 115.941 36.6681H114.505V42.9095H115.941Z" fill="#2E3192"/>
<path d="M125.13 43.8435C124.393 43.8435 123.721 43.6726 123.112 43.3309C122.504 42.9817 122.022 42.4995 121.665 41.8845C121.315 41.2619 121.14 40.5633 121.14 39.7888C121.14 39.0144 121.315 38.3196 121.665 37.7046C122.022 37.082 122.504 36.5998 123.112 36.2581C123.721 35.9088 124.393 35.7342 125.13 35.7342C125.875 35.7342 126.552 35.9088 127.16 36.2581C127.768 36.5998 128.247 37.0782 128.596 37.6932C128.946 38.3082 129.121 39.0068 129.121 39.7888C129.121 40.5709 128.946 41.2695 128.596 41.8845C128.247 42.4995 127.768 42.9817 127.16 43.3309C126.552 43.6726 125.875 43.8435 125.13 43.8435ZM125.13 42.9437C125.685 42.9437 126.183 42.8146 126.624 42.5565C127.072 42.2983 127.422 41.93 127.673 41.4517C127.931 40.9733 128.06 40.4191 128.06 39.7888C128.06 39.151 127.931 38.5967 127.673 38.126C127.422 37.6476 127.076 37.2794 126.635 37.0212C126.195 36.7631 125.693 36.634 125.13 36.634C124.568 36.634 124.066 36.7631 123.626 37.0212C123.185 37.2794 122.835 37.6476 122.577 38.126C122.326 38.5967 122.2 39.151 122.2 39.7888C122.2 40.4191 122.326 40.9733 122.577 41.4517C122.835 41.93 123.185 42.2983 123.626 42.5565C124.074 42.8146 124.576 42.9437 125.13 42.9437Z" fill="#2E3192"/>
<path d="M131.528 42.9209H134.31V43.7637H130.49V35.8253H131.528V42.9209Z" fill="#2E3192"/>
<path d="M140.109 41.9984H136.643L136.004 43.7637H134.91L137.783 35.8709H138.98L141.841 43.7637H140.747L140.109 41.9984ZM139.812 41.1556L138.376 37.1465L136.939 41.1556H139.812Z" fill="#2E3192"/>
<path d="M147.985 35.8253V36.6681H145.818V43.7637H144.781V36.6681H142.603V35.8253H147.985Z" fill="#2E3192"/>
<path d="M160.361 35.8823V43.7637H159.324V37.8868L156.702 43.7637H155.972L153.339 37.8754V43.7637H152.301V35.8823H153.418L156.337 42.397L159.256 35.8823H160.361Z" fill="#2E3192"/>
<path d="M166.818 41.9984H163.352L162.714 43.7637H161.619L164.492 35.8709H165.689L168.551 43.7637H167.456L166.818 41.9984ZM166.522 41.1556L165.085 37.1465L163.649 41.1556H166.522Z" fill="#2E3192"/>
<path d="M175.925 35.8253V43.7637H174.888V40.1647H170.841V43.7637H169.803V35.8253H170.841V39.3105H174.888V35.8253H175.925Z" fill="#2E3192"/>
<path d="M180.216 43.8435C179.692 43.8435 179.221 43.7524 178.803 43.5701C178.392 43.3803 178.069 43.1221 177.834 42.7956C177.598 42.4616 177.476 42.0781 177.469 41.6453H178.575C178.613 42.0174 178.765 42.3325 179.031 42.5906C179.304 42.8412 179.7 42.9665 180.216 42.9665C180.71 42.9665 181.098 42.845 181.379 42.602C181.668 42.3515 181.812 42.0326 181.812 41.6453C181.812 41.3416 181.729 41.0948 181.562 40.905C181.394 40.7152 181.185 40.5709 180.935 40.4722C180.684 40.3735 180.346 40.2672 179.92 40.1533C179.396 40.0166 178.974 39.88 178.654 39.7433C178.343 39.6066 178.073 39.394 177.845 39.1055C177.625 38.8093 177.514 38.4145 177.514 37.921C177.514 37.4882 177.625 37.1047 177.845 36.7706C178.065 36.4366 178.373 36.1784 178.768 35.9962C179.171 35.8139 179.631 35.7228 180.148 35.7228C180.893 35.7228 181.501 35.9088 181.972 36.2809C182.451 36.653 182.721 37.1465 182.782 37.7615H181.641C181.603 37.4578 181.444 37.192 181.163 36.9643C180.881 36.7289 180.509 36.6112 180.045 36.6112C179.612 36.6112 179.259 36.7251 178.985 36.9529C178.711 37.1731 178.575 37.4844 178.575 37.8868C178.575 38.1753 178.654 38.4107 178.814 38.5929C178.981 38.7752 179.183 38.9156 179.418 39.0144C179.662 39.1055 180 39.2118 180.433 39.3333C180.957 39.4775 181.379 39.6218 181.698 39.7661C182.018 39.9027 182.291 40.1191 182.519 40.4153C182.747 40.7038 182.861 41.0986 182.861 41.5998C182.861 41.987 182.759 42.3515 182.554 42.6931C182.348 43.0348 182.044 43.312 181.641 43.5246C181.239 43.7372 180.764 43.8435 180.216 43.8435Z" fill="#2E3192"/>
<path d="M185.403 35.8253V40.8481C185.403 41.5542 185.574 42.0781 185.916 42.4198C186.265 42.7615 186.748 42.9323 187.364 42.9323C187.972 42.9323 188.447 42.7615 188.789 42.4198C189.138 42.0781 189.313 41.5542 189.313 40.8481V35.8253H190.351V40.8367C190.351 41.4972 190.218 42.0553 189.952 42.5109C189.686 42.9589 189.325 43.293 188.869 43.5132C188.42 43.7334 187.915 43.8435 187.352 43.8435C186.79 43.8435 186.281 43.7334 185.825 43.5132C185.376 43.293 185.019 42.9589 184.753 42.5109C184.495 42.0553 184.365 41.4972 184.365 40.8367V35.8253H185.403Z" fill="#2E3192"/>
<path d="M193.119 42.9209H195.901V43.7637H192.081V35.8253H193.119V42.9209Z" fill="#2E3192"/>
<path d="M200.605 43.8435C199.868 43.8435 199.195 43.6726 198.587 43.3309C197.979 42.9817 197.497 42.4995 197.139 41.8845C196.79 41.2619 196.615 40.5633 196.615 39.7888C196.615 39.0144 196.79 38.3196 197.139 37.7046C197.497 37.082 197.979 36.5998 198.587 36.2581C199.195 35.9088 199.868 35.7342 200.605 35.7342C201.35 35.7342 202.026 35.9088 202.634 36.2581C203.243 36.5998 203.721 37.0782 204.071 37.6932C204.421 38.3082 204.595 39.0068 204.595 39.7888C204.595 40.5709 204.421 41.2695 204.071 41.8845C203.721 42.4995 203.243 42.9817 202.634 43.3309C202.026 43.6726 201.35 43.8435 200.605 43.8435ZM200.605 42.9437C201.16 42.9437 201.658 42.8146 202.099 42.5565C202.547 42.2983 202.897 41.93 203.148 41.4517C203.406 40.9733 203.535 40.4191 203.535 39.7888C203.535 39.151 203.406 38.5967 203.148 38.126C202.897 37.6476 202.551 37.2794 202.11 37.0212C201.669 36.7631 201.168 36.634 200.605 36.634C200.043 36.634 199.541 36.7631 199.1 37.0212C198.659 37.2794 198.31 37.6476 198.051 38.126C197.801 38.5967 197.675 39.151 197.675 39.7888C197.675 40.4191 197.801 40.9733 198.051 41.4517C198.31 41.93 198.659 42.2983 199.1 42.5565C199.549 42.8146 200.05 42.9437 200.605 42.9437Z" fill="#2E3192"/>
<path d="M210.856 35.8253V36.6681H208.69V43.7637H207.652V36.6681H205.475V35.8253H210.856Z" fill="#2E3192"/>
<path d="M213.171 42.9209H215.952V43.7637H212.133V35.8253H213.171V42.9209Z" fill="#2E3192"/>
<path d="M221.751 41.9984H218.285L217.647 43.7637H216.552L219.425 35.8709H220.623L223.484 43.7637H222.39L221.751 41.9984ZM221.455 41.1556L220.018 37.1465L218.582 41.1556H221.455Z" fill="#2E3192"/>
<path d="M228.92 43.7637L227.028 40.5178H225.774V43.7637H224.736V35.8253H227.301C227.902 35.8253 228.407 35.9278 228.818 36.1328C229.236 36.3378 229.547 36.615 229.753 36.9643C229.958 37.3135 230.06 37.7122 230.06 38.1601C230.06 38.7068 229.901 39.189 229.582 39.6066C229.27 40.0242 228.799 40.3014 228.168 40.438L230.163 43.7637H228.92ZM225.774 39.6863H227.301C227.864 39.6863 228.286 39.5497 228.567 39.2763C228.848 38.9954 228.989 38.6233 228.989 38.1601C228.989 37.6894 228.848 37.3249 228.567 37.0668C228.293 36.8086 227.872 36.6795 227.301 36.6795H225.774V39.6863Z" fill="#2E3192"/>
<path d="M232.71 35.8253V43.7637H231.673V35.8253H232.71Z" fill="#2E3192"/>
<path d="M14.8003 12.5291C19.3594 12.5291 23.6182 12.3654 27.8497 12.5836C30.607 12.72 32.6818 14.1927 33.5281 16.9745C34.3744 19.7291 33.2278 21.8291 31.0711 23.6291C31.2622 23.7927 31.3987 23.9836 31.5898 24.0927C34.429 25.7291 35.3845 27.6382 34.9477 30.72C34.5928 33.2018 32.5453 35.52 29.5969 35.7109C24.7648 36.0109 19.8781 35.7927 14.8276 35.7927C14.8276 32.9563 14.8276 29.9564 14.8276 26.7654C9.94087 26.7654 5.27257 26.7654 0.658867 26.7654C-2.58983 17.5473 6.63757 4.07453 18.1855 0.883618C32.4361 -3.04365 44.5846 6.85635 47.0416 16.0745C45.622 16.0745 44.2024 16.2382 42.8647 15.9927C42.1822 15.8564 41.4724 15.0927 41.0629 14.4382C37.0771 8.16544 31.4806 4.94726 24.0004 5.02908C14.6911 5.13817 6.71947 12.12 5.40907 21.5836C8.49397 21.5836 11.5516 21.5836 14.773 21.5836C14.8003 18.6109 14.8003 15.6382 14.8003 12.5291ZM22.2805 26.2473C22.2805 24.72 22.2805 23.3564 22.2805 21.9927C23.7001 21.9109 25.0105 21.9655 26.2663 21.7745C27.4675 21.5836 28.423 20.9564 28.3957 19.4836C28.3957 17.9836 27.4129 17.3563 26.1844 17.2745C24.1915 17.1382 22.1986 17.2473 20.1511 17.2473C20.1511 22.02 20.1511 26.6564 20.1511 31.4018C22.5262 31.4018 24.7921 31.4836 27.0307 31.3745C28.4776 31.32 29.7061 30.6382 29.7334 28.9745C29.7607 27.4473 28.7233 26.7109 27.2764 26.5745C25.6384 26.4382 24.0004 26.3563 22.2805 26.2473Z" fill="#2E3192"/>
<path d="M2.35146 33.8291C2.10576 33.1745 2.56986 32.4654 3.27966 32.4382C4.23517 32.4109 5.13607 32.3836 6.03696 32.5473C6.71946 32.6564 7.42926 33.3927 7.81146 34.0473C13.8175 43.6745 25.8841 46.4836 35.1934 40.3473C39.6433 37.4018 42.346 33.3654 43.4653 27.9927C43.6018 27.3654 43.1377 26.7654 42.4825 26.7382C41.4178 26.7109 40.4077 26.9018 39.4249 26.7654C37.9507 26.5745 37.4866 26.22 35.9851 25.1563C35.6848 24.9382 35.4391 24.6654 35.2207 24.3109C34.975 23.8745 34.8931 23.52 34.975 23.0563C35.1661 21.9382 36.2581 21.72 37.5685 21.7745C40.8991 21.8836 44.2297 21.8291 47.533 21.8018C47.9971 21.8018 48.4066 22.1018 48.5158 22.5382C50.8636 31.62 42.4279 44.22 31.7536 47.3836C17.4211 51.6654 5.79126 42.8291 2.35146 33.8291Z" fill="#2E3192"/>
<path d="M66.3225 19.8155C67.0033 19.9229 67.6215 20.2003 68.177 20.6478C68.7503 21.0953 69.1983 21.6502 69.5208 22.3125C69.8612 22.9748 70.0314 23.6818 70.0314 24.4336C70.0314 25.3823 69.7896 26.2415 69.3058 27.0112C68.822 27.763 68.1143 28.3627 67.1825 28.8102C66.2687 29.2398 65.1847 29.4545 63.9304 29.4545H56.9425V10.7402H63.6617C64.9338 10.7402 66.0179 10.955 66.9138 11.3846C67.8096 11.7963 68.4816 12.3601 68.9295 13.0761C69.3775 13.7921 69.6014 14.5976 69.6014 15.4926C69.6014 16.6024 69.2968 17.5243 68.6876 18.2582C68.0963 18.9742 67.308 19.4933 66.3225 19.8155ZM59.3883 18.822H63.5004C64.6472 18.822 65.5341 18.5535 66.1612 18.0165C66.7883 17.4795 67.1019 16.7367 67.1019 15.788C67.1019 14.8393 66.7883 14.0964 66.1612 13.5594C65.5341 13.0224 64.6292 12.7539 63.4467 12.7539H59.3883V18.822ZM63.7154 27.4408C64.9338 27.4408 65.8835 27.1544 66.5644 26.5816C67.2452 26.0088 67.5857 25.2123 67.5857 24.192C67.5857 23.1538 67.2273 22.3393 66.5106 21.7486C65.7939 21.14 64.8353 20.8358 63.6348 20.8358H59.3883V27.4408H63.7154Z" fill="#2E3192"/>
<path d="M75.8175 10.7402V22.581C75.8175 24.2457 76.2206 25.4808 77.0269 26.2863C77.8512 27.0918 78.9889 27.4945 80.4403 27.4945C81.8737 27.4945 82.9936 27.0918 83.7999 26.2863C84.6241 25.4808 85.0362 24.2457 85.0362 22.581V10.7402H87.482V22.5541C87.482 24.1114 87.1684 25.4271 86.5413 26.5011C85.9142 27.5572 85.0631 28.3448 83.988 28.8639C82.9309 29.3829 81.7393 29.6425 80.4134 29.6425C79.0875 29.6425 77.887 29.3829 76.8119 28.8639C75.7548 28.3448 74.9127 27.5572 74.2855 26.5011C73.6763 25.4271 73.3717 24.1114 73.3717 22.5541V10.7402H75.8175Z" fill="#2E3192"/>
<path d="M106.29 29.4545H103.845L94.0078 14.5529V29.4545H91.562V10.7134H94.0078L103.845 25.5882V10.7134H106.29V29.4545Z" fill="#2E3192"/>
<path d="M123.575 10.7402L117.474 22.393V29.4545H115.029V22.393L108.901 10.7402H111.615L116.238 20.2182L120.861 10.7402H123.575Z" fill="#2E3192"/>
<path d="M134.648 29.6425C132.91 29.6425 131.325 29.2397 129.891 28.4343C128.458 27.6109 127.32 26.4742 126.478 25.0243C125.654 23.5565 125.241 21.9097 125.241 20.084C125.241 18.2582 125.654 16.6203 126.478 15.1704C127.32 13.7026 128.458 12.566 129.891 11.7605C131.325 10.9371 132.91 10.5254 134.648 10.5254C136.404 10.5254 137.999 10.9371 139.432 11.7605C140.866 12.566 141.995 13.6937 142.819 15.1436C143.643 16.5935 144.055 18.2403 144.055 20.084C144.055 21.9276 143.643 23.5744 142.819 25.0243C141.995 26.4742 140.866 27.6109 139.432 28.4343C137.999 29.2397 136.404 29.6425 134.648 29.6425ZM134.648 27.5214C135.956 27.5214 137.13 27.2171 138.169 26.6085C139.226 25.9999 140.05 25.1317 140.642 24.004C141.251 22.8763 141.556 21.5696 141.556 20.084C141.556 18.5804 141.251 17.2737 140.642 16.1639C140.05 15.0362 139.235 14.168 138.196 13.5594C137.157 12.9508 135.974 12.6465 134.648 12.6465C133.322 12.6465 132.14 12.9508 131.101 13.5594C130.061 14.168 129.237 15.0362 128.628 16.1639C128.037 17.2737 127.741 18.5804 127.741 20.084C127.741 21.5696 128.037 22.8763 128.628 24.004C129.237 25.1317 130.061 25.9999 131.101 26.6085C132.158 27.2171 133.34 27.5214 134.648 27.5214Z" fill="#2E3192"/>
<path d="M153.116 10.7402C155.159 10.7402 156.924 11.1251 158.411 11.8948C159.916 12.6465 161.063 13.7295 161.851 15.1436C162.657 16.5577 163.06 18.2224 163.06 20.1377C163.06 22.0529 162.657 23.7176 161.851 25.1317C161.063 26.5279 159.916 27.6019 158.411 28.3537C156.924 29.0876 155.159 29.4545 153.116 29.4545H147.284V10.7402H153.116ZM153.116 27.4408C155.535 27.4408 157.381 26.8054 158.653 25.5345C159.925 24.2457 160.561 22.4467 160.561 20.1377C160.561 17.8107 159.916 15.9938 158.626 14.6871C157.354 13.3804 155.517 12.7271 153.116 12.7271H149.73V27.4408H153.116Z" fill="#2E3192"/>
<path d="M181.945 29.6425C180.207 29.6425 178.621 29.2397 177.188 28.4343C175.754 27.6109 174.617 26.4742 173.774 25.0243C172.95 23.5565 172.538 21.9097 172.538 20.084C172.538 18.2582 172.95 16.6203 173.774 15.1704C174.617 13.7026 175.754 12.566 177.188 11.7605C178.621 10.9371 180.207 10.5254 181.945 10.5254C183.701 10.5254 185.296 10.9371 186.729 11.7605C188.162 12.566 189.291 13.6937 190.115 15.1436C190.94 16.5935 191.352 18.2403 191.352 20.084C191.352 21.9276 190.94 23.5744 190.115 25.0243C189.291 26.4742 188.162 27.6109 186.729 28.4343C185.296 29.2397 183.701 29.6425 181.945 29.6425ZM181.945 27.5214C183.253 27.5214 184.427 27.2171 185.466 26.6085C186.523 25.9999 187.347 25.1317 187.938 24.004C188.548 22.8763 188.852 21.5696 188.852 20.084C188.852 18.5804 188.548 17.2737 187.938 16.1639C187.347 15.0362 186.532 14.168 185.493 13.5594C184.453 12.9508 183.271 12.6465 181.945 12.6465C180.619 12.6465 179.436 12.9508 178.397 13.5594C177.358 14.168 176.534 15.0362 175.925 16.1639C175.333 17.2737 175.038 18.5804 175.038 20.084C175.038 21.5696 175.333 22.8763 175.925 24.004C176.534 25.1317 177.358 25.9999 178.397 26.6085C179.454 27.2171 180.637 27.5214 181.945 27.5214Z" fill="#2E3192"/>
<path d="M207.105 16.2176C207.105 17.7749 206.568 19.0726 205.492 20.1108C204.435 21.1311 202.814 21.6412 200.628 21.6412H197.026V29.4545H194.581V10.7402H200.628C202.742 10.7402 204.346 11.2504 205.439 12.2706C206.55 13.2909 207.105 14.6066 207.105 16.2176ZM200.628 19.6275C201.99 19.6275 202.993 19.3322 203.638 18.7415C204.283 18.1508 204.606 17.3095 204.606 16.2176C204.606 13.9085 203.28 12.7539 200.628 12.7539H197.026V19.6275H200.628Z" fill="#2E3192"/>
<path d="M221.675 10.7402V12.7271H216.568V29.4545H214.123V12.7271H208.989V10.7402H221.675Z" fill="#2E3192"/>
<path d="M233.179 29.6425C231.441 29.6425 229.855 29.2397 228.421 28.4343C226.988 27.6109 225.85 26.4742 225.008 25.0243C224.184 23.5565 223.772 21.9097 223.772 20.084C223.772 18.2582 224.184 16.6203 225.008 15.1704C225.85 13.7026 226.988 12.566 228.421 11.7605C229.855 10.9371 231.441 10.5254 233.179 10.5254C234.935 10.5254 236.529 10.9371 237.963 11.7605C239.396 12.566 240.525 13.6937 241.349 15.1436C242.173 16.5935 242.585 18.2403 242.585 20.084C242.585 21.9276 242.173 23.5744 241.349 25.0243C240.525 26.4742 239.396 27.6109 237.963 28.4343C236.529 29.2397 234.935 29.6425 233.179 29.6425ZM233.179 27.5214C234.487 27.5214 235.66 27.2171 236.699 26.6085C237.757 25.9999 238.581 25.1317 239.172 24.004C239.781 22.8763 240.086 21.5696 240.086 20.084C240.086 18.5804 239.781 17.2737 239.172 16.1639C238.581 15.0362 237.766 14.168 236.726 13.5594C235.687 12.9508 234.505 12.6465 233.179 12.6465C231.853 12.6465 230.67 12.9508 229.631 13.5594C228.592 14.168 227.767 15.0362 227.158 16.1639C226.567 17.2737 226.271 18.5804 226.271 20.084C226.271 21.5696 226.567 22.8763 227.158 24.004C227.767 25.1317 228.592 25.9999 229.631 26.6085C230.688 27.2171 231.871 27.5214 233.179 27.5214Z" fill="#2E3192"/>
<path d="M264.816 10.8745V29.4545H262.37V15.6L256.189 29.4545H254.469L248.26 15.5732V29.4545H245.814V10.8745H248.448L255.329 26.2326L262.209 10.8745H264.816Z" fill="#2E3192"/>
</svg>
